<?xml version="1.0" encoding="UTF-8"?>
<svg id="Layer_1" xmlns="http://www.w3.org/2000/svg" version="1.1" viewBox="0 0 2198.300049 2423.100098">
  <!-- Generator: Adobe Illustrator 29.6.1, SVG Export Plug-In . SVG Version: 2.1.1 Build 9)  -->
  <path d="M2049.399902,532.099976L1212.5,49c-62.400024-36-164.400024-36-226.700012,0L148.899994,532.099976c-62.400002,36-113.400002,124.400024-113.400002,196.400024v966.199951c0,72,51,160.400024,113.400002,196.400024l836.900055,483.099976c62.400024,36,164.400024,36,226.699951,0l836.899902-483.099976c62.399902-36,113.399902-124.400024,113.399902-196.400024v-966.299927c-.099854-72-51.099854-160.300049-113.399902-196.300049ZM627.5,1184v468.800049h-154.399994v-468.800049c0-120.699951,98.199982-219,218.999969-219h768.599976v154.400024h-768.599976c-35.699951,0-64.599976,29-64.599976,64.599976ZM1718.900024,1646.800049h-782.600037c-112.099976,0-203.200012-91.199951-203.200012-203.199951v-215.099976h778.299927c26.900024,0,48.900024-21.900024,48.900024-48.900024v-271.30011c0-26.900024-21.900024-48.900024-48.900024-48.900024H479.399902v-154.299988h1032c112.099976,0,203.199951,91.200012,203.199951,203.200012v271.200012c0,112.099976-91.199951,203.199951-203.199951,203.199951h-623.999878v60.800049c0,26.900024,21.900024,48.900024,48.900024,48.900024h782.599976v154.400024Z"/>
</svg>