<?xml version="1.0" encoding="UTF-8"?>
<svg id="Layer_1" xmlns="http://www.w3.org/2000/svg" version="1.1" viewBox="0 0 57.38 57.37">
  <!-- Generator: Adobe Illustrator 29.6.1, SVG Export Plug-In . SVG Version: 2.1.1 Build 9)  -->
  <defs>
    <style>
      .st0 {
        fill: #020202;
      }
    </style>
  </defs>
  <path class="st0" d="M50.49,15.87c-.1-.16-.34-.09-.34.1v1.68c0,8.74-7.28,15.77-16.11,15.37-7.73-.36-14.07-6.53-14.61-14.25-.47-6.59,3.22-12.37,8.71-15-.12-.5.03.13-.09-.37C14.29,3.75,3.26,15.08,3.41,28.96c.15,13.65,11.27,24.81,24.92,25,14.13.2,25.64-11.2,25.64-25.28,0-4.67-1.27-9.05-3.48-12.81Z"/>
  <circle class="st0" cx="33.44" cy="12.09" r="7.38"/>
</svg>