<?xml version="1.0" encoding="UTF-8"?>
<svg id="Layer_1" xmlns="http://www.w3.org/2000/svg" version="1.1" viewBox="0 0 1246.780029 754.630005">
  <!-- Generator: Adobe Illustrator 29.6.1, SVG Export Plug-In . SVG Version: 2.1.1 Build 9)  -->
  <defs>
    <style>
      .st0 {
        fill: none;
        stroke: #fff;
        stroke-miterlimit: 10;
        stroke-width: 2px;
      }
    </style>
  </defs>
  <path class="st0" d="M1096.719971,11.22H149.429993c-13.369995,0-24.220001,10.829999-24.220001,24.200002v657.369976h995.700043V35.41c0-13.369999-10.829956-24.200001-24.199951-24.200001l.009888.010001ZM140.360001,40.09c0-6.920002,5.610001-12.52,12.520004-12.52h941.01001c6.920044,0,12.52002,5.599998,12.52002,12.52v613.440029H140.360001V40.09Z"/>
  <rect class="st0" x="125.540001" y="665.76001" width="995.380043" height="27.02002"/>
  <g>
    <path class="st0" d="M1230.319946,692.780029v20.98999c0,12.75-10.329956,23.099976-23.099976,23.099976H39.560001c-12.75,0-23.1-10.340027-23.1-23.099976v-20.98999h1213.859945Z"/>
    <path class="st0" d="M516.679993,692.780029h212.22998v1.48999c0,7.659973-6.219971,13.869995-13.869995,13.869995h-184.48999c-7.659973,0-13.869995-6.219971-13.869995-13.869995v-1.48999h0Z"/>
    <path class="st0" d="M1230.319946,713.780029c0,12.75-10.329956,23.099976-23.099976,23.099976H39.560001c-12.75,0-23.1-10.340027-23.1-23.099976h1213.859945Z"/>
  </g>
  <path class="st0" d="M157.820007,743.419983h-67.129997c-3.610001,0-6.540001-2.929993-6.540001-6.539978h80.220001c0,3.609985-2.929993,6.539978-6.539993,6.539978h-.01001Z"/>
  <path class="st0" d="M1159.140015,743.419983h-67.130005c-3.609985,0-6.540039-2.929993-6.540039-6.539978h80.219971c0,3.609985-2.930054,6.539978-6.540039,6.539978h-.009888Z"/>
</svg>