<?xml version="1.0" encoding="UTF-8"?>
<svg id="Layer_1" xmlns="http://www.w3.org/2000/svg" version="1.1" viewBox="0 0 373.61 57.37">
  <!-- Generator: Adobe Illustrator 29.6.1, SVG Export Plug-In . SVG Version: 2.1.1 Build 9)  -->
  <defs>
    <style>
      .st0 {
        fill: #f4f4f4;
      }
    </style>
  </defs>
  <g>
    <path class="st0" d="M112.99,7.93h-40.66c-.59,0-1.06.48-1.06,1.06v41.17c0,.59.48,1.06,1.06,1.06h12.52c.59,0,1.06-.48,1.06-1.06v-12.79c0-.59.48-1.06,1.06-1.06h20.45c.38,0,.72.2.92.52l8.16,13.76c.19.32.54.52.92.52h13.88c.83,0,1.34-.9.92-1.61l-8.27-13.91c-.32-.55-.11-1.26.48-1.51,5.72-2.45,9.5-6.68,9.5-11.49v-.94c0-7.58-9.37-13.72-20.93-13.72ZM118.73,22.12c0,3.22-3.2,4.91-7.83,4.91h-23.92c-.59,0-1.06-.48-1.06-1.06v-7.7c-.01-.59.46-1.07,1.05-1.07h24.44c4.62,0,7.32,1.74,7.32,4.77v.14Z"/>
    <rect class="st0" x="136.85" y="7.91" width="14.65" height="43.33" rx="1.06" ry="1.06"/>
    <path class="st0" d="M255.39,7.93h-39.7c-.59,0-1.06.48-1.06,1.06v3.31c0,.93-1.09,1.4-1.79.78-3.54-3.14-9.09-5.15-15.69-5.15h-39.7c-.59,0-1.06.48-1.06,1.06v41.17c0,.59.48,1.06,1.06,1.06h12.76c.59,0,1.06-.48,1.06-1.06v-11.75c0-.59.48-1.06,1.06-1.06h24.81c6.61,0,12.15-2.01,15.69-5.15.7-.62,1.79-.15,1.79.78v17.18c0,.59.48,1.06,1.06,1.06h12.76c.59,0,1.06-.48,1.06-1.06v-11.75c0-.59.48-1.06,1.06-1.06h24.81c11.56,0,19.88-6.14,19.88-13.72v-1.99c0-7.58-8.32-13.72-19.88-13.72h0ZM202.87,23.17h0c0,3.22-3.2,4.91-7.83,4.91h-22.72c-.59,0-1.06-.48-1.06-1.06v-8.74c-.01-.59.46-1.07,1.05-1.07h23.24c4.62,0,7.32,1.74,7.32,4.77v1.19ZM261.12,23.17c0,3.22-3.2,4.91-7.83,4.91h-22.72c-.59,0-1.06-.48-1.06-1.06v-8.74c-.01-.59.47-1.07,1.05-1.07h23.24c4.62,0,7.32,1.74,7.32,4.77v1.19Z"/>
    <path class="st0" d="M291.39,7.91h-12.52c-.59,0-1.06.48-1.06,1.06v41.2c0,.59.48,1.06,1.06,1.06h42.16c.59,0,1.06-.48,1.06-1.06v-8.88c0-.59-.48-1.06-1.06-1.06h-27.51c-.59,0-1.06-.48-1.06-1.06V8.97c0-.59-.48-1.06-1.06-1.06Z"/>
    <path class="st0" d="M350.48,22.29h-7c-1.67,0-3.82.25-5.4.69-.5.14-1-.24-.96-.76l.22-3.03c.05-.65.59-1.16,1.25-1.16h28.68c.75,0,1.33-.65,1.24-1.39l-.92-8.05c-.07-.63-.61-1.11-1.24-1.11h-39.18c-.6,0-1.12.43-1.23,1.02l-4.03,21.23c-.32,1.67.96,3.21,2.66,3.21h12.31c1.52,0,1.14-1.54,5.35-1.65,1.67-.04,8.68,0,8.68,0,3.43,0,6.5,1.81,6.5,5.19v.54c0,2.92-2.95,5.25-6.65,5.25h-7.61c-3.6,0-6.97-1.92-7.12-4.6,0-.13,0-.4,0-.68,0-.45-.36-.82-.81-.82h-13.67c-.45,0-.81.36-.81.81v1.21c.07,7.93,9.77,13.48,20.73,13.48h10.14c11.71,0,21.02-6.57,21.02-14.03v-1.15c0-9.26-9.22-14.19-22.17-14.19Z"/>
  </g>
  <g>
    <path class="st0" d="M53.43,14.15c-.11-.18-.39-.1-.39.11v1.91c0,9.91-8.26,17.9-18.28,17.44-8.77-.4-15.96-7.41-16.58-16.17-.53-7.48,3.66-14.04,9.88-17.02-.13-.56.03.14-.1-.42C12.35.39-.17,13.25,0,29c.17,15.49,12.79,28.15,28.28,28.37,16.03.22,29.1-12.71,29.1-28.69,0-5.3-1.44-10.27-3.95-14.53Z"/>
    <circle class="st0" cx="35.03" cy="9.65" r="8.37"/>
  </g>
</svg>