<?xml version="1.0" encoding="UTF-8"?>
<svg id="Layer_1" xmlns="http://www.w3.org/2000/svg" version="1.1" viewBox="0 0 387.341766 754.632935">
  <!-- Generator: Adobe Illustrator 29.6.1, SVG Export Plug-In . SVG Version: 2.1.1 Build 9)  -->
  <defs>
    <style>
      .st0 {
        isolation: isolate;
      }

      .st1 {
        fill: none;
        stroke: #fff;
        stroke-miterlimit: 10;
        stroke-width: 2px;
      }
    </style>
  </defs>
  <g class="st0">
    <g id="Layer_11">
      <g>
        <path class="st1" d="M315.036469,11.216977H72.24015c-31.644371,0-57.291901,25.64746-57.291901,57.291903v618.620392c0,31.640808,25.64753,57.28833,57.291901,57.28833h242.796349c31.6409,0,57.291901-25.647522,57.291901-57.28833V68.508881c0-31.64444-25.651001-57.291901-57.291901-57.291901l-.000031-.000003ZM354.951599,69.551163v616.532211c0,21.635315-16.730743,39.358276-37.958984,40.936035-.33551.024963-.674683.046387-1.013702.06427-.699646.035645-1.406586.053528-2.113342.053528H73.411041c-.696144,0-1.392281-.017883-2.08107-.053528-.33918-.017883-.678368-.039307-1.013725-.06427-21.228416-1.577759-37.959114-19.30072-37.959114-40.936035V69.551163c0-21.631744,16.730698-39.358288,37.959114-40.936008.335365-.025023.674545-.04644,1.013725-.064323.688789-.035624,1.384926-.053509,2.08107-.053509h240.454559c.706757,0,1.413696.017883,2.113342.053509.338989.017883.678192.039301,1.013702.064323,21.228241,1.577723,37.958984,19.304264,37.958984,40.936008h-.000031Z"/>
        <path class="st1" d="M313.59787,16.814056H73.678764c-29.095791,0-52.679993,23.584312-52.679993,52.67646v616.653587c0,29.092163,23.584202,52.676453,52.679993,52.676453h239.919106c29.092163,0,52.676544-23.58429,52.676544-52.676392V69.490517c0-29.092148-23.584381-52.67646-52.676544-52.67646ZM354.951599,686.083435c0,21.635315-16.730743,39.358276-37.958984,40.936035-.33551.024963-.674683.046387-1.013702.06427-.699646.035645-1.406586.053528-2.113342.053528H73.411041c-.696144,0-1.392281-.017883-2.08107-.053528-.33918-.017883-.678368-.039307-1.013725-.06427-21.228416-1.577759-37.959114-19.30072-37.959114-40.936035V69.551163c0-21.631744,16.730698-39.358288,37.959114-40.936008.335365-.025023.674545-.04644,1.013725-.064323.688789-.035624,1.384926-.053509,2.08107-.053509h240.454559c.706757,0,1.413696.017883,2.113342.053509.338989.017883.678192.039301,1.013702.064323,21.228241,1.577723,37.958984,19.304264,37.958984,40.936008v616.532211l-.000031.000061Z"/>
        <g>
          <g>
            <rect class="st1" x="372.32782" y="198.549286" width="2.092194" height="88.369293"/>
            <path class="st1" d="M374.420013,286.922638v-88.350464l1.046021,1.147049c-.529053,9.407578-.492401,76.670425,0,86.056168l-1.046021,1.147278v-.000031Z"/>
          </g>
          <g>
            <polygon class="st1" points="13.667762 235.927414 13.667762 179.962616 12.473092 179.948166 12.473092 235.927414 13.667762 235.927414"/>
            <path class="st1" d="M12.473092,235.929993v-55.981827l-.597371.741196c.302094,5.959396.281141,48.568329,0,54.513901l.597371.72673Z"/>
            <rect class="st1" x="13.667762" y="179.962616" width="1.279983" height="55.98201"/>
          </g>
          <g>
            <rect class="st1" x="12.473092" y="250.37619" width="1.19467" height="55.979279"/>
            <path class="st1" d="M12.473092,306.358002v-55.967331l-.597371.72673c.302094,5.959442.281141,48.568329,0,54.513916l.597371.726685Z"/>
            <rect class="st1" x="13.667762" y="250.390671" width="1.279983" height="55.98201"/>
          </g>
          <g>
            <rect class="st1" x="12.473092" y="127.056915" width="1.19467" height="28.732864"/>
            <path class="st1" d="M12.473092,155.792389v-28.721664l-.597371.687111c.302094,5.636696.281141,21.723549,0,27.346901l.597371.687653Z"/>
            <rect class="st1" x="13.667762" y="127.070732" width="1.279983" height="28.735298"/>
          </g>
        </g>
      </g>
    </g>
  </g>
</svg>